<svg xmlns="http://www.w3.org/2000/svg" className="fill-current text-blue-400" version="1.1" xmlns:xlink="http://www.w3.org/1999/xlink" viewBox="0 0 1200.63 198.6">
  <defs>
    <style>
      .cls-1 {
        fill: #67e677;
      }

      .cls-1, .cls-2, .cls-3, .cls-4, .cls-5, .cls-6, .cls-7, .cls-8 {
        stroke-width: 0px;
      }

      .cls-2 {
        fill: currentColor;
      }

      .cls-3 {
        fill: none;
      }

      .cls-9 {
        clip-path: url(#clippath-1);
      }

      .cls-4 {
        fill: #3bdd47;
      }

      .cls-5 {
        fill: #88cb8e;
      }

      .cls-6 {
        fill: #c1e6c5;
      }

      .cls-7 {
        fill: #114c16;
      }

      .cls-10 {
        clip-path: url(#clippath);
      }

      .cls-8 {
        fill: #29a432;
      }
    </style>
    <clipPath id="clippath">
      <rect class="cls-3" x="1" y="1" width="200" height="200"/>
    </clipPath>
    <clipPath id="clippath-1">
      <rect class="cls-3" x="1" y="1" width="200" height="200"/>
    </clipPath>
  </defs>
  <g class="cls-10">
    <g class="cls-9">
      <path class="cls-8" d="M154.54,156.54c1.04,2.75.77,5.82.81,8.73-.05,5.38.32,10.91-1.1,16.12-7.08,24.89-41.15,24.77-48.26-.09-1.97-7.46-.86-15.3-1.05-22.91-.02-15.85.04-31.64-.02-47.39,0-1.24.04-3.18.68-3.91.93-.92,2.49.56,3.41,1.38,8.35,8.22,16.33,16.87,24.56,25.18,4.8,4.85,9.61,9.76,14.32,14.64,2.37,2.56,5.36,4.82,6.63,8.18l.03.08Z"/>
      <path class="cls-8" d="M90.72,188.9c-6.56,10.21-20.84,14.11-31.69,8.51-7.66-3.74-13.08-11.61-13.93-20.13-.46-4.04-.29-8.13-.31-12.19.04-2.99-.18-5.8.74-8.39.7-2.07,2.19-3.86,3.74-5.45,1.97-2.03,3.96-4.06,5.95-6.09,12.31-12.37,24.37-25.01,36.74-37.37,2.62-2.39,3.24-.5,3.29,2.12.07,9.39,0,18.8.03,28.2,0,9.39,0,18.78,0,28.16.16,8.02.12,15.91-4.52,22.55l-.05.07Z"/>
      <path class="cls-1" d="M44.32,45.47c-1.2-3.15-.7-6.68-.81-10,0-5.58-.18-11.3,1.71-16.56,9.24-24.46,43.24-21.5,48.51,4.08.82,4.04.59,8.16.6,12.26-.03,19.02.11,38.26-.06,57.27-.12,4.19-1.37,3.68-3.71,1.15-1.72-1.87-3.59-3.7-5.38-5.54-11.52-11.67-23.08-23.46-34.66-35.1-2.21-2.34-4.96-4.44-6.18-7.48l-.03-.07Z"/>
      <path class="cls-7" d="M155.79,155.11c-3.25-1.32-5.56-4.19-8.09-6.52-4.83-4.77-9.76-9.56-14.68-14.29-8.78-8.72-17.93-17.31-26.54-26.2-2.3-3.28,4.81-2.24,6.54-2.42,19.84.09,39.84-.14,59.73-.02,4.88.2,9.81,1.25,14.04,3.73,12.92,7.07,16.72,24.79,7.61,36.4-8.3,10.69-19.6,10.72-31.98,10.23-2.2,0-4.5-.07-6.55-.89l-.08-.03Z"/>
      <path class="cls-8" d="M106.9,95.85c-1.02-.28-.95-3.1-.95-4.41.13-15.89.09-31.77-.08-47.66.14-10.88-1.41-23.25,6.21-32.11,11.92-15.41,36.81-10.4,42.67,8.07,1.74,5.06,1.65,10.48,1.72,15.77-.04,3.59.38,7.33-.99,10.5-1.46,3.4-4.56,5.81-7.02,8.49-12.66,12.98-25.33,26-38.04,38.95-.89.92-2.52,2.62-3.48,2.41h-.03Z"/>
      <path class="cls-1" d="M94.92,107.14c.39,1.02-1.4,2.75-2.32,3.67-11.19,10.88-22.32,21.8-33.57,32.62-2.93,2.83-5.86,5.69-8.77,8.53-1.67,1.64-3.54,3.14-5.77,3.82-3.2,1.01-7.13,1.23-10.67,1.32-8.29.2-16.3-1.36-22.85-6.96-9.7-7.8-11.76-22.66-4.48-32.79,6.88-9.72,16.55-11.6,27.79-11.24,19.2.03,38.41-.07,57.61.03,1.61.07,2.75.34,3.02.96v.03Z"/>
      <path class="cls-4" d="M44.91,46.57c1.97.74,3.64,2.09,5.15,3.55,12.51,12.17,25.05,24.6,37.5,36.83,2.05,2.14,4.57,4.17,6.26,6.55,2.12,3.52-4.39,2.38-6.34,2.51-2.21-.05-4.51-.08-6.74-.07-15.91-.03-31.74-.05-47.62-.03-7.4.24-15.11-.22-21.14-4.98C-4.53,78.51.45,52.62,20.32,46.96c4.6-1.35,9.47-1.24,14.23-1.26,3.41.08,7.03-.36,10.28.83l.08.03Z"/>
      <path class="cls-4" d="M106.43,95.82c-.37-1.01,1.94-3.06,2.85-3.98,13.99-13.61,27.93-27.33,41.88-40.97,3.53-3.71,7.15-4.76,12.17-4.58,9.27-.06,18.81-.62,26.4,5.59,15.45,11.87,11.96,35.5-5.9,42.83-5.13,2.09-10.74,1.81-16.18,1.75-19.19-.09-38.49.02-57.63-.04-1.6-.06-3.32,0-3.59-.61"/>
      <path class="cls-6" d="M187.97,91.88c.49-.34.99-.68,1.48-1.02"/>
      <path class="cls-5" d="M106.72,25.88c.07.04.11.3,0,.37-.16.1-.19-.24-.05-.38h.04Z"/>
      <path class="cls-5" d="M106.75,24.41c.05.07.03.13-.03.18,0-.06.02-.12.03-.18"/>
    </g>
  </g>
  <g>
    <path class="cls-2" d="M297.1,172.86c-14.68,0-27.26-2.97-37.73-8.9-10.48-5.93-18.51-14.33-24.12-25.2-5.6-10.87-8.41-23.7-8.41-38.5,0-11.07,1.6-21.03,4.8-29.9,3.2-8.87,7.81-16.47,13.81-22.8,6-6.33,13.38-11.2,22.12-14.6,8.74-3.4,18.58-5.1,29.52-5.1,7.34,0,14.54.93,21.62,2.8,7.07,1.87,13.28,4.53,18.61,8,2.8,1.73,4.67,3.83,5.6,6.3.93,2.47,1.13,4.87.6,7.2-.53,2.33-1.64,4.3-3.3,5.9-1.67,1.6-3.74,2.5-6.21,2.7-2.47.2-5.17-.63-8.11-2.5-4.14-2.67-8.61-4.6-13.41-5.8-4.8-1.2-9.68-1.8-14.61-1.8-9.48,0-17.48,1.93-24.02,5.8-6.54,3.87-11.48,9.47-14.81,16.8-3.34,7.33-5,16.33-5,27s1.67,19.53,5,27c3.33,7.47,8.27,13.13,14.81,17,6.54,3.87,14.54,5.8,24.02,5.8,5.07,0,10.07-.63,15.01-1.9,4.94-1.27,9.61-3.23,14.01-5.9,2.93-1.73,5.57-2.5,7.91-2.3,2.33.2,4.3,1.04,5.9,2.5,1.6,1.47,2.67,3.3,3.2,5.5.53,2.2.4,4.47-.4,6.8-.8,2.33-2.4,4.37-4.8,6.1-5.34,3.87-11.71,6.83-19.12,8.9-7.41,2.07-14.91,3.1-22.52,3.1Z"/>
    <path class="cls-2" d="M398.58,172.86c-11.08,0-19.42-3.17-25.02-9.5-5.6-6.33-8.41-15.63-8.41-27.9V40.86c0-4.13,1.07-7.27,3.2-9.4,2.13-2.13,5.2-3.2,9.21-3.2s7.11,1.07,9.31,3.2c2.2,2.13,3.3,5.27,3.3,9.4v93.4c0,6.13,1.3,10.67,3.9,13.6,2.6,2.93,6.31,4.4,11.11,4.4,1.07,0,2.07-.03,3-.1.93-.07,1.87-.17,2.8-.3,1.87-.27,3.13.23,3.8,1.5.67,1.27,1,3.83,1,7.7,0,3.33-.67,5.93-2,7.8-1.33,1.87-3.54,3-6.61,3.4-1.33.13-2.74.27-4.2.4-1.47.13-2.94.2-4.4.2Z"/>
    <path class="cls-2" d="M472.64,172.86c-10.14,0-18.95-2.07-26.42-6.2-7.47-4.13-13.28-10.03-17.41-17.7-4.14-7.67-6.2-16.7-6.2-27.1,0-7.87,1.17-14.9,3.5-21.1,2.33-6.2,5.71-11.53,10.11-16,4.4-4.47,9.67-7.87,15.81-10.2,6.14-2.33,13.01-3.5,20.62-3.5,10.14,0,18.95,2.07,26.42,6.2,7.47,4.13,13.28,10,17.41,17.6,4.13,7.6,6.2,16.6,6.2,27,0,7.87-1.17,14.93-3.5,21.2-2.34,6.27-5.71,11.63-10.11,16.1-4.4,4.47-9.68,7.87-15.81,10.2-6.14,2.33-13.01,3.5-20.62,3.5ZM472.64,153.86c4.94,0,9.27-1.2,13.01-3.6,3.73-2.4,6.64-5.97,8.71-10.7,2.07-4.73,3.1-10.63,3.1-17.7,0-10.67-2.27-18.63-6.8-23.9-4.54-5.27-10.54-7.9-18.01-7.9-4.94,0-9.28,1.17-13.01,3.5-3.74,2.33-6.64,5.87-8.71,10.6-2.07,4.73-3.1,10.63-3.1,17.7,0,10.53,2.27,18.5,6.8,23.9,4.54,5.4,10.54,8.1,18.01,8.1Z"/>
    <path class="cls-2" d="M580.92,172.46c-3.34,0-6.24-.87-8.71-2.6-2.47-1.73-4.5-4.4-6.1-8l-31.83-73.8c-1.2-2.93-1.64-5.67-1.3-8.2.33-2.53,1.53-4.57,3.6-6.1,2.07-1.53,4.9-2.3,8.51-2.3,3.07,0,5.54.7,7.41,2.1,1.87,1.4,3.53,4.03,5,7.9l27.02,67.4h-6l27.82-67.6c1.47-3.73,3.17-6.3,5.1-7.7,1.93-1.4,4.57-2.1,7.91-2.1,2.93,0,5.27.77,7,2.3,1.73,1.53,2.8,3.53,3.2,6,.4,2.47-.07,5.17-1.4,8.1l-32.43,74c-1.47,3.6-3.44,6.27-5.9,8-2.47,1.73-5.44,2.6-8.91,2.6Z"/>
    <path class="cls-2" d="M693.01,172.86c-11.08,0-20.62-2.07-28.62-6.2-8.01-4.13-14.18-10-18.51-17.6-4.34-7.6-6.5-16.6-6.5-27s2.1-19,6.3-26.6,10.01-13.57,17.41-17.9c7.41-4.33,15.84-6.5,25.32-6.5,6.94,0,13.18,1.13,18.71,3.4,5.54,2.27,10.27,5.53,14.21,9.8,3.93,4.27,6.94,9.43,9.01,15.5,2.07,6.07,3.1,12.9,3.1,20.5,0,2.4-.83,4.23-2.5,5.5-1.67,1.27-4.04,1.9-7.11,1.9h-64.25v-14.4h56.24l-3.2,3c0-6.13-.9-11.27-2.7-15.4-1.8-4.13-4.4-7.3-7.81-9.5s-7.64-3.3-12.71-3.3c-5.6,0-10.38,1.3-14.31,3.9-3.94,2.6-6.94,6.27-9.01,11-2.07,4.73-3.1,10.37-3.1,16.9v1.4c0,10.93,2.57,19.1,7.71,24.5,5.14,5.4,12.71,8.1,22.72,8.1,3.47,0,7.37-.43,11.71-1.3,4.33-.87,8.44-2.37,12.31-4.5,2.8-1.6,5.27-2.3,7.41-2.1,2.13.2,3.83.97,5.1,2.3,1.27,1.33,2.03,2.97,2.3,4.9.27,1.93-.1,3.9-1.1,5.9-1,2-2.7,3.73-5.1,5.2-4.67,2.93-10.04,5.1-16.11,6.5-6.07,1.4-11.71,2.1-16.91,2.1Z"/>
    <path class="cls-2" d="M766.07,172.46c-4.14,0-7.31-1.1-9.51-3.3-2.2-2.2-3.3-5.37-3.3-9.5v-75.6c0-4.13,1.07-7.27,3.2-9.4,2.13-2.13,5.13-3.2,9.01-3.2s6.87,1.07,9.01,3.2c2.13,2.13,3.2,5.27,3.2,9.4v12.6h-2c1.87-8,5.54-14.07,11.01-18.2,5.47-4.13,12.74-6.6,21.82-7.4,2.8-.27,5.04.43,6.71,2.1,1.67,1.67,2.63,4.23,2.9,7.7.27,3.33-.5,6.03-2.3,8.1-1.8,2.07-4.5,3.3-8.11,3.7l-4.4.4c-8.14.8-14.28,3.3-18.42,7.5-4.14,4.2-6.2,10.1-6.2,17.7v41.4c0,4.13-1.07,7.3-3.2,9.5-2.14,2.2-5.27,3.3-9.41,3.3Z"/>
    <path class="cls-2" d="M846.93,172.46c-4.14,0-7.31-1.17-9.51-3.5-2.2-2.33-3.3-5.57-3.3-9.7V42.86c0-4.27,1.13-7.5,3.4-9.7,2.27-2.2,5.47-3.3,9.61-3.3h48.24c15.48,0,27.42,3.87,35.83,11.6,8.41,7.73,12.61,18.53,12.61,32.4s-4.2,24.7-12.61,32.5c-8.41,7.8-20.35,11.7-35.83,11.7h-35.63v41.2c0,4.13-1.07,7.37-3.2,9.7-2.14,2.33-5.34,3.5-9.61,3.5ZM859.74,97.86h31.62c9.07,0,15.94-2.03,20.62-6.1,4.67-4.07,7.01-10.03,7.01-17.9s-2.34-13.8-7.01-17.8c-4.67-4-11.54-6-20.62-6h-31.62v47.8Z"/>
    <path class="cls-2" d="M974.63,53.06c-4.67,0-8.31-1.17-10.91-3.5-2.6-2.33-3.9-5.57-3.9-9.7s1.3-7.53,3.9-9.8c2.6-2.27,6.24-3.4,10.91-3.4s8.47,1.13,11.01,3.4c2.53,2.27,3.8,5.53,3.8,9.8s-1.27,7.37-3.8,9.7c-2.54,2.33-6.21,3.5-11.01,3.5ZM974.63,172.26c-4,0-7.07-1.2-9.21-3.6-2.14-2.4-3.2-5.73-3.2-10v-73.4c0-4.4,1.07-7.77,3.2-10.1,2.13-2.33,5.2-3.5,9.21-3.5s7.11,1.17,9.31,3.5c2.2,2.33,3.3,5.7,3.3,10.1v73.4c0,4.27-1.07,7.6-3.2,10-2.14,2.4-5.27,3.6-9.41,3.6Z"/>
    <path class="cls-2" d="M1058.5,172.86c-10.28,0-19.21-2.1-26.82-6.3s-13.48-10.17-17.61-17.9c-4.14-7.73-6.2-16.8-6.2-27.2,0-7.87,1.17-14.9,3.5-21.1,2.33-6.2,5.71-11.47,10.11-15.8,4.4-4.33,9.74-7.67,16.01-10,6.27-2.33,13.28-3.5,21.02-3.5,4.4,0,9.17.6,14.31,1.8,5.13,1.2,9.97,3.2,14.51,6,2.13,1.33,3.53,2.93,4.2,4.8.67,1.87.8,3.77.4,5.7-.4,1.93-1.23,3.6-2.5,5-1.27,1.4-2.84,2.27-4.7,2.6-1.87.33-3.94-.1-6.21-1.3-2.94-1.73-5.94-3.03-9.01-3.9-3.07-.87-6-1.3-8.81-1.3-4.4,0-8.27.7-11.61,2.1-3.34,1.4-6.17,3.4-8.51,6-2.34,2.6-4.1,5.83-5.3,9.7-1.2,3.87-1.8,8.33-1.8,13.4,0,9.87,2.37,17.63,7.11,23.3,4.73,5.67,11.44,8.5,20.12,8.5,2.8,0,5.71-.4,8.71-1.2,3-.8,6.04-2.07,9.11-3.8,2.27-1.2,4.3-1.6,6.1-1.2,1.8.4,3.3,1.3,4.5,2.7,1.2,1.4,1.93,3.07,2.2,5,.27,1.93.03,3.83-.7,5.7-.73,1.87-2.1,3.4-4.1,4.6-4.4,2.67-9.08,4.6-14.01,5.8-4.94,1.2-9.61,1.8-14.01,1.8Z"/>
    <path class="cls-2" d="M1120.14,172.46c-4,0-7.07-1.1-9.21-3.3-2.14-2.2-3.2-5.37-3.2-9.5V40.86c0-4.13,1.07-7.27,3.2-9.4,2.13-2.13,5.2-3.2,9.21-3.2s7.11,1.07,9.31,3.2c2.2,2.13,3.3,5.27,3.3,9.4v73.8h.4l33.03-34.8c2.67-2.67,5-4.73,7.01-6.2,2-1.47,4.74-2.2,8.21-2.2s6.11.9,7.91,2.7c1.8,1.8,2.7,3.97,2.7,6.5s-1.2,5.07-3.6,7.6l-34.83,36.8v-10.4l38.23,41.2c2.4,2.53,3.5,5.1,3.3,7.7-.2,2.6-1.3,4.73-3.3,6.4-2,1.67-4.54,2.5-7.61,2.5-3.74,0-6.71-.73-8.91-2.2-2.2-1.47-4.64-3.67-7.31-6.6l-34.83-36.4h-.4v32.4c0,8.53-4.2,12.8-12.61,12.8Z"/>
  </g>
</svg>