<svg xmlns="http://www.w3.org/2000/svg" version="1.1" xmlns:xlink="http://www.w3.org/1999/xlink" viewBox="0 0 1621.63 201.6">
 <defs>
    <style>
      .cls-1 {
        fill: #67e677;
      }

      .cls-1, .cls-2, .cls-3, .cls-4, .cls-5, .cls-6, .cls-7, .cls-8 {
        stroke-width: 0px;
      }

      .cls-2 {
        fill: currentColor;
      }

      .cls-3 {
        fill: none;
      }

      .cls-9 {
        clip-path: url(#clippath-1);
      }

      .cls-4 {
        fill: #3bdd47;
      }

      .cls-5 {
        fill: #88cb8e;
      }

      .cls-6 {
        fill: #c1e6c5;
      }

      .cls-7 {
        fill: #114c16;
      }

      .cls-10 {
        clip-path: url(#clippath);
      }

      .cls-8 {
        fill: #29a432;
      }
    </style>
    <clipPath id="clippath">
      <rect class="cls-3" x="1" y="1" width="200" height="200"/>
    </clipPath>
    <clipPath id="clippath-1">
      <rect class="cls-3" x="1" y="1" width="200" height="200"/>
    </clipPath>
  </defs>
  <g>
    <g class="cls-10">
      <g class="cls-9">
        <path class="cls-8" d="M154.54,156.54c1.04,2.75.77,5.82.81,8.73-.05,5.38.32,10.91-1.1,16.12-7.08,24.89-41.15,24.77-48.26-.09-1.97-7.46-.86-15.3-1.05-22.91-.02-15.85.04-31.64-.02-47.39,0-1.24.04-3.18.68-3.91.93-.92,2.49.56,3.41,1.38,8.35,8.22,16.33,16.87,24.56,25.18,4.8,4.85,9.61,9.76,14.32,14.64,2.37,2.56,5.36,4.82,6.63,8.18l.03.08Z"/>
        <path class="cls-8" d="M90.72,188.9c-6.56,10.21-20.84,14.11-31.69,8.51-7.66-3.74-13.08-11.61-13.93-20.13-.46-4.04-.29-8.13-.31-12.19.04-2.99-.18-5.8.74-8.39.7-2.07,2.19-3.86,3.74-5.45,1.97-2.03,3.96-4.06,5.95-6.09,12.31-12.37,24.37-25.01,36.74-37.37,2.62-2.39,3.24-.5,3.29,2.12.07,9.39,0,18.8.03,28.2,0,9.39,0,18.78,0,28.16.16,8.02.12,15.91-4.52,22.55l-.05.07Z"/>
        <path class="cls-1" d="M44.32,45.47c-1.2-3.15-.7-6.68-.81-10,0-5.58-.18-11.3,1.71-16.56,9.24-24.46,43.24-21.5,48.51,4.08.82,4.04.59,8.16.6,12.26-.03,19.02.11,38.26-.06,57.27-.12,4.19-1.37,3.68-3.71,1.15-1.72-1.87-3.59-3.7-5.38-5.54-11.52-11.67-23.08-23.46-34.66-35.1-2.21-2.34-4.96-4.44-6.18-7.48l-.03-.07Z"/>
        <path class="cls-7" d="M155.79,155.11c-3.25-1.32-5.56-4.19-8.09-6.52-4.83-4.77-9.76-9.56-14.68-14.29-8.78-8.72-17.93-17.31-26.54-26.2-2.3-3.28,4.81-2.24,6.54-2.42,19.84.09,39.84-.14,59.73-.02,4.88.2,9.81,1.25,14.04,3.73,12.92,7.07,16.72,24.79,7.61,36.4-8.3,10.69-19.6,10.72-31.98,10.23-2.2,0-4.5-.07-6.55-.89l-.08-.03Z"/>
        <path class="cls-8" d="M106.9,95.85c-1.02-.28-.95-3.1-.95-4.41.13-15.89.09-31.77-.08-47.66.14-10.88-1.41-23.25,6.21-32.11,11.92-15.41,36.81-10.4,42.67,8.07,1.74,5.06,1.65,10.48,1.72,15.77-.04,3.59.38,7.33-.99,10.5-1.46,3.4-4.56,5.81-7.02,8.49-12.66,12.98-25.33,26-38.04,38.95-.89.92-2.52,2.62-3.48,2.41h-.03Z"/>
        <path class="cls-1" d="M94.92,107.14c.39,1.02-1.4,2.75-2.32,3.67-11.19,10.88-22.32,21.8-33.57,32.62-2.93,2.83-5.86,5.69-8.77,8.53-1.67,1.64-3.54,3.14-5.77,3.82-3.2,1.01-7.13,1.23-10.67,1.32-8.29.2-16.3-1.36-22.85-6.96-9.7-7.8-11.76-22.66-4.48-32.79,6.88-9.72,16.55-11.6,27.79-11.24,19.2.03,38.41-.07,57.61.03,1.61.07,2.75.34,3.02.96v.03Z"/>
        <path class="cls-4" d="M44.91,46.57c1.97.74,3.64,2.09,5.15,3.55,12.51,12.17,25.05,24.6,37.5,36.83,2.05,2.14,4.57,4.17,6.26,6.55,2.12,3.52-4.39,2.38-6.34,2.51-2.21-.05-4.51-.08-6.74-.07-15.91-.03-31.74-.05-47.62-.03-7.4.24-15.11-.22-21.14-4.98C-4.53,78.51.45,52.62,20.32,46.96c4.6-1.35,9.47-1.24,14.23-1.26,3.41.08,7.03-.36,10.28.83l.08.03Z"/>
        <path class="cls-4" d="M106.43,95.82c-.37-1.01,1.94-3.06,2.85-3.98,13.99-13.61,27.93-27.33,41.88-40.97,3.53-3.71,7.15-4.76,12.17-4.58,9.27-.06,18.81-.62,26.4,5.59,15.45,11.87,11.96,35.5-5.9,42.83-5.13,2.09-10.74,1.81-16.18,1.75-19.19-.09-38.49.02-57.63-.04-1.6-.06-3.32,0-3.59-.61"/>
        <path class="cls-6" d="M187.97,91.88c.49-.34.99-.68,1.48-1.02"/>
        <path class="cls-5" d="M106.72,25.88c.07.04.11.3,0,.37-.16.1-.19-.24-.05-.38h.04Z"/>
        <path class="cls-5" d="M106.75,24.41c.05.07.03.13-.03.18,0-.06.02-.12.03-.18"/>
      </g>
    </g>
    <g>
      <path class="cls-2" d="M341.48,199.56c-19.82,0-36.8-4-50.94-12.02-14.14-8.01-24.99-19.35-32.56-34.02-7.57-14.67-11.35-32-11.35-51.98,0-14.94,2.16-28.39,6.49-40.36,4.32-11.97,10.54-22.23,18.64-30.78,8.11-8.55,18.06-15.12,29.86-19.71,11.8-4.59,25.08-6.88,39.86-6.88,9.9,0,19.63,1.26,29.18,3.78,9.55,2.52,17.92,6.12,25.13,10.8,3.78,2.34,6.3,5.18,7.57,8.51,1.26,3.33,1.53,6.57.81,9.72-.72,3.15-2.21,5.81-4.46,7.97-2.25,2.16-5.05,3.38-8.38,3.65-3.34.27-6.98-.85-10.94-3.38-5.59-3.6-11.62-6.21-18.1-7.83-6.48-1.62-13.06-2.43-19.73-2.43-12.79,0-23.6,2.61-32.43,7.83-8.83,5.22-15.5,12.78-20,22.68-4.5,9.9-6.76,22.05-6.76,36.45s2.25,26.37,6.76,36.45c4.5,10.08,11.17,17.73,20,22.95,8.82,5.22,19.63,7.83,32.43,7.83,6.84,0,13.6-.85,20.27-2.56,6.66-1.71,12.97-4.36,18.92-7.97,3.96-2.34,7.52-3.38,10.67-3.1,3.15.27,5.81,1.4,7.97,3.38,2.16,1.98,3.6,4.46,4.32,7.42.72,2.97.54,6.03-.54,9.18-1.08,3.15-3.24,5.9-6.48,8.24-7.21,5.22-15.81,9.23-25.81,12.01-10,2.79-20.13,4.19-30.4,4.19Z"/>
      <path class="cls-2" d="M485.23,199.56c-14.96,0-26.21-4.27-33.78-12.83-7.57-8.55-11.35-21.1-11.35-37.67V21.36c0-5.58,1.44-9.81,4.32-12.69,2.88-2.88,7.03-4.32,12.43-4.32s9.59,1.44,12.56,4.32c2.97,2.88,4.46,7.11,4.46,12.69v126.09c0,8.28,1.76,14.4,5.27,18.36,3.51,3.96,8.51,5.94,15,5.94,1.44,0,2.79-.04,4.05-.13,1.26-.09,2.52-.22,3.78-.41,2.52-.36,4.23.32,5.13,2.03.9,1.71,1.35,5.18,1.35,10.39,0,4.5-.9,8.01-2.7,10.53-1.8,2.52-4.78,4.05-8.92,4.59-1.8.18-3.69.36-5.67.54-1.98.18-3.96.27-5.94.27Z"/>
      <path class="cls-2" d="M591.96,199.56c-13.69,0-25.58-2.79-35.67-8.37-10.09-5.58-17.93-13.54-23.51-23.9-5.59-10.35-8.38-22.54-8.38-36.58,0-10.62,1.57-20.12,4.73-28.48,3.15-8.37,7.7-15.57,13.65-21.6,5.94-6.03,13.06-10.62,21.35-13.77,8.28-3.15,17.56-4.73,27.83-4.73,13.69,0,25.58,2.79,35.67,8.37,10.09,5.58,17.92,13.5,23.51,23.76,5.58,10.26,8.38,22.41,8.38,36.45,0,10.62-1.58,20.16-4.73,28.62-3.15,8.46-7.7,15.71-13.65,21.74-5.94,6.03-13.06,10.62-21.35,13.77-8.29,3.15-17.56,4.73-27.83,4.73ZM591.96,173.91c6.66,0,12.52-1.62,17.56-4.86,5.04-3.24,8.96-8.05,11.75-14.45,2.79-6.39,4.19-14.35,4.19-23.9,0-14.4-3.07-25.15-9.19-32.26-6.13-7.11-14.23-10.67-24.32-10.67-6.67,0-12.52,1.58-17.56,4.73-5.05,3.15-8.96,7.92-11.75,14.31-2.79,6.39-4.19,14.36-4.19,23.89,0,14.22,3.06,24.98,9.19,32.27,6.12,7.29,14.23,10.93,24.32,10.93Z"/>
      <path class="cls-2" d="M744.9,199.02c-4.5,0-8.42-1.17-11.75-3.51-3.33-2.34-6.08-5.94-8.24-10.8l-42.96-99.63c-1.62-3.96-2.21-7.65-1.76-11.07.45-3.42,2.07-6.16,4.86-8.23,2.79-2.07,6.62-3.1,11.48-3.1,4.14,0,7.47.94,10,2.83,2.52,1.89,4.77,5.45,6.75,10.67l36.48,90.99h-8.11l37.56-91.26c1.98-5.04,4.28-8.5,6.89-10.4,2.61-1.89,6.17-2.83,10.67-2.83,3.96,0,7.11,1.04,9.46,3.1,2.34,2.07,3.78,4.77,4.32,8.1.54,3.33-.09,6.98-1.89,10.94l-43.77,99.9c-1.98,4.86-4.64,8.46-7.97,10.8-3.34,2.34-7.34,3.51-12.02,3.51Z"/>
      <path class="cls-2" d="M902.98,199.56c-14.96,0-27.83-2.79-38.64-8.37-10.81-5.58-19.14-13.5-25-23.76-5.86-10.26-8.78-22.41-8.78-36.45s2.84-25.65,8.51-35.91c5.67-10.26,13.51-18.31,23.51-24.17,10-5.85,21.39-8.77,34.18-8.77,9.36,0,17.79,1.53,25.26,4.59,7.47,3.06,13.87,7.47,19.19,13.23,5.31,5.76,9.36,12.74,12.16,20.93,2.79,8.19,4.19,17.41,4.19,27.67,0,3.24-1.13,5.72-3.38,7.43-2.25,1.71-5.45,2.56-9.59,2.56h-86.74v-19.44h75.93l-4.32,4.05c0-8.28-1.22-15.21-3.65-20.79-2.43-5.58-5.95-9.85-10.54-12.83-4.59-2.97-10.31-4.45-17.16-4.45-7.57,0-14.01,1.75-19.32,5.26-5.32,3.51-9.37,8.46-12.16,14.85-2.79,6.39-4.19,14-4.19,22.82v1.89c0,14.76,3.47,25.79,10.4,33.08,6.93,7.29,17.16,10.93,30.67,10.93,4.68,0,9.95-.58,15.81-1.75,5.85-1.17,11.39-3.19,16.62-6.08,3.78-2.16,7.11-3.1,10-2.83,2.88.27,5.18,1.31,6.89,3.11,1.71,1.8,2.74,4.01,3.11,6.62.36,2.61-.14,5.26-1.49,7.96-1.35,2.7-3.65,5.04-6.89,7.02-6.31,3.96-13.56,6.88-21.75,8.78-8.2,1.89-15.81,2.83-22.83,2.83Z"/>
      <path class="cls-2" d="M1008.36,199.02c-5.59,0-9.86-1.49-12.83-4.46s-4.46-7.24-4.46-12.83v-102.06c0-5.58,1.44-9.81,4.32-12.69,2.88-2.88,6.93-4.32,12.16-4.32s9.28,1.44,12.16,4.32c2.88,2.88,4.32,7.11,4.32,12.69v17.01h-2.7c2.52-10.8,7.47-18.99,14.86-24.57,7.38-5.58,17.2-8.91,29.45-9.99,3.78-.36,6.8.59,9.05,2.83,2.25,2.25,3.55,5.72,3.92,10.4.36,4.5-.68,8.15-3.11,10.94-2.43,2.79-6.08,4.46-10.94,5l-5.94.54c-10.99,1.08-19.28,4.45-24.86,10.13-5.59,5.67-8.38,13.63-8.38,23.89v55.89c0,5.58-1.44,9.86-4.32,12.83-2.88,2.97-7.12,4.46-12.7,4.46Z"/>
      <path class="cls-2" d="M1124.28,199.02c-5.58,0-9.86-1.58-12.83-4.73-2.97-3.15-4.46-7.51-4.46-13.09V24.06c0-5.76,1.53-10.12,4.59-13.1,3.06-2.97,7.38-4.46,12.97-4.46h65.12c20.9,0,37.02,5.22,48.37,15.66,11.35,10.44,17.02,25.02,17.02,43.74s-5.67,33.35-17.02,43.88c-11.35,10.53-27.47,15.8-48.37,15.8h-48.1v55.62c0,5.58-1.44,9.95-4.32,13.09-2.88,3.15-7.21,4.73-12.97,4.73ZM1141.57,98.31h42.69c12.25,0,21.52-2.74,27.83-8.24,6.3-5.49,9.46-13.54,9.46-24.17s-3.15-18.63-9.46-24.03c-6.31-5.4-15.58-8.1-27.83-8.1h-42.69v64.53Z"/>
      <path class="cls-2" d="M1303.43,37.83c-6.31,0-11.21-1.57-14.73-4.73-3.51-3.15-5.27-7.51-5.27-13.1s1.76-10.17,5.27-13.23c3.51-3.06,8.42-4.59,14.73-4.59s11.44,1.53,14.86,4.59c3.42,3.06,5.13,7.47,5.13,13.23s-1.71,9.95-5.13,13.1c-3.42,3.15-8.38,4.73-14.86,4.73ZM1303.43,198.75c-5.4,0-9.55-1.62-12.43-4.86-2.88-3.24-4.32-7.74-4.32-13.5v-99.09c0-5.94,1.44-10.48,4.32-13.63,2.88-3.15,7.03-4.73,12.43-4.73s9.59,1.58,12.56,4.73c2.97,3.15,4.46,7.69,4.46,13.63v99.09c0,5.76-1.44,10.26-4.32,13.5-2.88,3.24-7.12,4.86-12.7,4.86Z"/>
      <path class="cls-2" d="M1423.4,199.56c-13.87,0-25.94-2.83-36.21-8.5-10.27-5.67-18.2-13.72-23.78-24.17-5.59-10.44-8.38-22.68-8.38-36.72,0-10.62,1.57-20.12,4.73-28.49,3.15-8.37,7.7-15.48,13.65-21.33,5.94-5.85,13.15-10.35,21.62-13.5,8.46-3.15,17.92-4.73,28.37-4.73,5.95,0,12.38.81,19.32,2.43,6.93,1.62,13.46,4.32,19.59,8.1,2.88,1.8,4.77,3.96,5.67,6.48.9,2.52,1.08,5.09.54,7.7-.54,2.61-1.67,4.86-3.38,6.75-1.71,1.89-3.83,3.06-6.35,3.51-2.53.45-5.32-.13-8.38-1.75-3.96-2.34-8.02-4.09-12.16-5.27-4.15-1.17-8.11-1.75-11.89-1.75-5.94,0-11.17.94-15.67,2.83-4.5,1.89-8.33,4.59-11.48,8.1-3.15,3.51-5.54,7.88-7.16,13.1-1.62,5.22-2.43,11.25-2.43,18.09,0,13.32,3.2,23.81,9.59,31.46,6.39,7.65,15.44,11.47,27.16,11.47,3.78,0,7.7-.54,11.75-1.62,4.05-1.08,8.15-2.79,12.29-5.13,3.06-1.62,5.81-2.16,8.24-1.62,2.43.54,4.46,1.75,6.08,3.65,1.62,1.89,2.61,4.14,2.97,6.75.36,2.61.04,5.18-.95,7.7-.99,2.52-2.84,4.59-5.54,6.21-5.94,3.6-12.25,6.21-18.92,7.83-6.67,1.62-12.97,2.43-18.92,2.43Z"/>
      <path class="cls-2" d="M1513.38,199.02c-5.4,0-9.55-1.49-12.43-4.46-2.88-2.97-4.32-7.24-4.32-12.83V21.36c0-5.58,1.44-9.81,4.32-12.69,2.88-2.88,7.03-4.32,12.43-4.32s9.59,1.44,12.56,4.32c2.97,2.88,4.46,7.11,4.46,12.69v99.63h.54l44.58-46.98c3.6-3.6,6.76-6.39,9.46-8.37,2.7-1.98,6.39-2.97,11.08-2.97s8.24,1.21,10.67,3.65c2.43,2.43,3.65,5.36,3.65,8.77s-1.62,6.84-4.86,10.26l-47.02,49.68v-14.04l51.61,55.62c3.24,3.42,4.73,6.88,4.46,10.39-.27,3.51-1.76,6.39-4.46,8.64-2.7,2.25-6.13,3.38-10.27,3.38-5.04,0-9.05-.99-12.02-2.97-2.97-1.98-6.26-4.95-9.86-8.91l-47.02-49.14h-.54v43.74c0,11.52-5.67,17.28-17.02,17.28Z"/>
    </g>
  </g>
</svg>