<svg xmlns="http://www.w3.org/2000/svg" version="1.1" viewBox="0 0 500 500">
  <defs>
    <style>
      .cls-1 {
        fill: #67e677;
      }

      .cls-1, .cls-2, .cls-3, .cls-4, .cls-5, .cls-6 {
        stroke-width: 0px;
      }

      .cls-2 {
        fill: #3bdd47;
      }

      .cls-3 {
        fill: #88cb8e;
      }

      .cls-4 {
        fill: #c1e6c5;
      }

      .cls-5 {
        fill: #114c16;
      }

      .cls-6 {
        fill: #29a432;
      }
    </style>
  </defs>
  <path class="cls-6" d="M383.85,388.84c2.6,6.88,1.92,14.56,2.02,21.82-.12,13.46.79,27.27-2.74,40.29-17.71,62.23-102.87,61.92-120.65-.23-4.91-18.65-2.14-38.24-2.62-57.29-.04-39.62.09-79.1-.06-118.47-.02-3.1.09-7.96,1.7-9.76,2.33-2.3,6.23,1.41,8.51,3.46,20.87,20.54,40.83,42.18,61.41,62.94,12,12.13,24.03,24.39,35.8,36.6,5.93,6.4,13.4,12.06,16.57,20.44l.07.2Z"/>
  <path class="cls-6" d="M224.31,469.76c-16.4,25.52-52.1,35.28-79.24,21.28-19.15-9.34-32.71-29.02-34.81-50.33-1.15-10.1-.73-20.32-.77-30.47.1-7.47-.45-14.49,1.86-20.98,1.76-5.18,5.46-9.64,9.35-13.62,4.92-5.08,9.91-10.16,14.87-15.22,30.79-30.92,60.92-62.52,91.85-93.44,6.56-5.98,8.11-1.25,8.24,5.31.17,23.48.01,47.01.07,70.5,0,23.47,0,46.94.01,70.41.39,20.04.3,39.76-11.31,56.37l-.12.17Z"/>
  <path class="cls-1" d="M108.3,111.18c-3-7.87-1.74-16.71-2.04-25,0-13.94-.46-28.24,4.28-41.41,23.09-61.15,108.11-53.74,121.28,10.2,2.05,10.1,1.48,20.4,1.5,30.64-.07,47.55.28,95.65-.15,143.18-.3,10.48-3.42,9.2-9.26,2.87-4.3-4.69-8.96-9.26-13.44-13.84-28.81-29.18-57.69-58.65-86.64-87.74-5.51-5.86-12.39-11.1-15.45-18.71l-.07-.18Z"/>
  <path class="cls-5" d="M386.98,385.26c-8.13-3.29-13.89-10.47-20.22-16.3-12.07-11.92-24.4-23.9-36.69-35.73-21.95-21.8-44.83-43.27-66.35-65.49-5.75-8.19,12.04-5.61,16.35-6.04,49.61.24,99.61-.36,149.33-.04,12.19.49,24.53,3.12,35.09,9.32,32.3,17.68,41.79,61.99,19.02,90.99-20.74,26.71-49.01,26.81-79.95,25.58-5.51,0-11.25-.18-16.38-2.22l-.19-.07Z"/>
  <path class="cls-6" d="M264.75,237.13c-2.56-.69-2.37-7.75-2.37-11.02.32-39.71.23-79.42-.2-119.15.36-27.19-3.51-58.12,15.52-80.28,29.8-38.52,92.04-26,106.67,20.18,4.34,12.66,4.14,26.2,4.29,39.42-.1,8.98.94,18.31-2.47,26.25-3.64,8.5-11.39,14.53-17.56,21.23-31.66,32.44-63.34,65-95.09,97.36-2.23,2.29-6.3,6.54-8.69,6.02l-.08-.02Z"/>
  <path class="cls-1" d="M234.79,265.36c.98,2.54-3.49,6.88-5.8,9.18-27.98,27.19-55.81,54.49-83.93,81.55-7.33,7.07-14.66,14.21-21.94,21.32-4.18,4.1-8.86,7.85-14.42,9.56-8,2.53-17.83,3.08-26.68,3.31-20.72.49-40.75-3.41-57.11-17.39-24.24-19.49-29.39-56.65-11.2-81.97,17.2-24.3,41.38-28.99,69.48-28.1,48,.08,96.03-.17,144.02.07,4.02.18,6.87.85,7.55,2.39l.04.08Z"/>
  <path class="cls-2" d="M109.78,113.93c4.93,1.84,9.11,5.24,12.89,8.89,31.27,30.42,62.63,61.49,93.76,92.08,5.12,5.35,11.43,10.42,15.65,16.37,5.31,8.81-10.97,5.94-15.84,6.27-5.53-.11-11.27-.2-16.84-.18-39.77-.06-79.36-.12-119.05-.06-18.5.6-37.77-.56-52.86-12.44C-13.83,193.77-1.37,129.05,48.29,114.91c11.51-3.36,23.67-3.09,35.58-3.14,8.54.2,17.57-.91,25.71,2.08l.2.07Z"/>
  <path class="cls-2" d="M263.58,237.05c-.93-2.52,4.85-7.66,7.12-9.94,34.97-34.02,69.82-68.33,104.71-102.42,8.83-9.27,17.88-11.89,30.42-11.45,23.17-.16,47.02-1.55,66.01,13.97,38.62,29.67,29.9,88.76-14.76,107.09-12.83,5.23-26.85,4.53-40.45,4.38-47.98-.22-96.22.06-144.08-.09-4-.15-8.31,0-8.97-1.53h0Z"/>
  <path class="cls-4" d="M467.42,227.2c1.23-.85,2.47-1.69,3.7-2.54"/>
  <path class="cls-3" d="M264.3,62.2c.18.1.27.75.02.93-.4.25-.48-.59-.13-.94h.11Z"/>
  <path class="cls-3" d="M264.38,58.52c.12.17.08.32-.07.45.02-.15.05-.3.07-.45Z"/>
</svg>